<?xml version="1.0" encoding="utf-8"?>
<!-- Generator: Adobe Illustrator 23.0.3, SVG Export Plug-In . SVG Version: 6.00 Build 0)  -->
<svg version="1.1" id="Capa_1" xmlns="http://www.w3.org/2000/svg" xmlns:xlink="http://www.w3.org/1999/xlink" x="0px" y="0px"
	 viewBox="0 0 1010.4 498.6" style="enable-background:new 0 0 1010.4 498.6;" xml:space="preserve">
<style type="text/css">
	.st0{fill:#FFFFFF;}
	.st1{fill:#252F38;}
	.st2{fill:#B9CF00;}
</style>
<rect class="st0" width="1010.4" height="498.6"/>
<path class="st1" d="M323.3,239.1c17.5-8.7,29.4-24.9,29.4-44.8c0-46.3-42.2-56.3-80.6-55.7H167.7v222.1h107.2
	c47.8,0,86.9-16.2,86.9-69.1C361.7,266.5,347,246,323.3,239.1 M225.8,183.4h45c12.2,0,23.8,5.3,23.8,21.5
	c0,15.9-13.7,21.2-23.8,21.2h-45V183.4z M272.3,314.4h-46.6v-51h46.6c17.5,0,31.3,6.5,31.3,26.1
	C303.6,307.9,290.8,314.4,272.3,314.4"/>
<polygon class="st2" points="382.8,315.2 450.3,248 382.8,180.8 425.9,137.8 493.4,205 560.9,137.8 604.1,180.8 536.6,248 
	604.1,315.2 560.9,358.2 493.4,291 425.9,358.2 "/>
<polygon class="st2" points="701.6,278.4 621.5,278.4 621.5,217.6 701.6,217.6 701.6,137.8 762.7,137.8 762.7,217.6 842.8,217.6 
	842.8,278.4 762.7,278.4 762.7,358.2 701.6,358.2 "/>
</svg>
